<svg xmlns="http://www.w3.org/2000/svg" viewBox="0 0 119.1 19.69"><defs><style>.cls-1{fill:#1c256a;}.cls-2{fill:#e15200;}</style></defs><title>Recurso 3</title><g id="Capa_2" data-name="Capa 2"><g id="Capa_1-2" data-name="Capa 1"><path class="cls-1" d="M17.56,19.67H12.72v-1.9a5.36,5.36,0,0,1-1.1.8,8.17,8.17,0,0,1-1.31.59,8.64,8.64,0,0,1-1.41.38,7.42,7.42,0,0,1-1.36.13,8.77,8.77,0,0,1-2.85-.46,6.83,6.83,0,0,1-2.4-1.41A6.82,6.82,0,0,1,.62,15.33,9.44,9.44,0,0,1,0,11.75V.22H4.85v11.3a4.69,4.69,0,0,0,.31,1.79A3.87,3.87,0,0,0,6,14.6a3.16,3.16,0,0,0,1.21.75,4.06,4.06,0,0,0,1.43.25A5.83,5.83,0,0,0,12.72,14V.22h4.84Z"/><path class="cls-1" d="M59.36,9.94a9.64,9.64,0,0,1-.77,3.86,9.29,9.29,0,0,1-2.13,3.08,10.16,10.16,0,0,1-3.16,2.06,10,10,0,0,1-3.88.75,9.9,9.9,0,0,1-3.85-.75,10.26,10.26,0,0,1-3.15-2.07,9.74,9.74,0,0,1-2.13-3.1,9.56,9.56,0,0,1-.77-3.83,9.21,9.21,0,0,1,.79-3.8A9.94,9.94,0,0,1,45.6.94,9.82,9.82,0,0,1,49.42.19,10,10,0,0,1,53.3.94,10.16,10.16,0,0,1,56.46,3a9.23,9.23,0,0,1,2.13,3.09A9.73,9.73,0,0,1,59.36,9.94Zm-4.63,0a5.85,5.85,0,0,0-1.56-4,5.27,5.27,0,0,0-1.68-1.2,5.1,5.1,0,0,0-4.1,0,5.27,5.27,0,0,0-1.68,1.2,5.58,5.58,0,0,0-1.14,1.8,5.76,5.76,0,0,0-.42,2.21,5.76,5.76,0,0,0,.42,2.21A5.58,5.58,0,0,0,45.71,14a5.27,5.27,0,0,0,1.68,1.2,5.1,5.1,0,0,0,4.1,0A5.27,5.27,0,0,0,53.17,14a5.85,5.85,0,0,0,1.56-4Z"/><path class="cls-1" d="M38.16,4.53a7,7,0,0,0-1.7-2.47A7,7,0,0,0,34,.65,8.67,8.67,0,0,0,31.19.19,8.46,8.46,0,0,0,29.8.32c-.36.07-.7.16-1,.26V4.41a6.71,6.71,0,0,1,1.34-.15,4.35,4.35,0,0,1,1.43.25,3.52,3.52,0,0,1,1.24.76,3.56,3.56,0,0,1,.86,1.28A4.69,4.69,0,0,1,34,8.34V19.67H38.8V8.11A9.23,9.23,0,0,0,38.16,4.53Z"/><polygon class="cls-2" points="18.22 9.81 25.89 0 25.87 19.67 21.14 19.67 21.13 9.02 18.22 9.81"/><path class="cls-2" d="M77.43,16.41A9.13,9.13,0,0,1,74,18.84a10.58,10.58,0,0,1-4.16.83,9.9,9.9,0,0,1-3.81-.73,9.68,9.68,0,0,1-3.11-2,9.61,9.61,0,0,1-2.08-3.09A9.79,9.79,0,0,1,60.12,10a9.59,9.59,0,0,1,.76-3.83A9.82,9.82,0,0,1,63,3,9.22,9.22,0,0,1,66,1,9.81,9.81,0,0,1,69.88.22a10.68,10.68,0,0,1,4,.77A8.88,8.88,0,0,1,77.2,3.32L74.1,6.49A6,6,0,0,0,72.39,5a5,5,0,0,0-4.45-.16A5.3,5.3,0,0,0,66.28,6a5.61,5.61,0,0,0-1.14,1.77,5.84,5.84,0,0,0,0,4.35,5.67,5.67,0,0,0,1.12,1.78,5.39,5.39,0,0,0,1.66,1.2,4.72,4.72,0,0,0,2,.45,4.84,4.84,0,0,0,2.5-.66,5.45,5.45,0,0,0,1.79-1.68Z"/><path class="cls-2" d="M91.1,2.62l-2.47,3.9a8.26,8.26,0,0,0-1.48-1.29,2.87,2.87,0,0,0-1.65-.56,2.66,2.66,0,0,0-1,.21,2.71,2.71,0,0,0-1,.68,3.82,3.82,0,0,0-.78,1.27,5,5,0,0,0-.32,1.93V19.19H77.82V.7h4.61v2A6.48,6.48,0,0,1,84.27.86,4.07,4.07,0,0,1,86.52.22a4.82,4.82,0,0,1,2.39.66A8.83,8.83,0,0,1,91.1,2.62Z"/><path class="cls-2" d="M119.1,19.19h-4.6v-11a4.16,4.16,0,0,0-1-3,3,3,0,0,0-2.32-1,5.54,5.54,0,0,0-3.84,1.44,9.78,9.78,0,0,1,.29,2.53v11h-4.61v-11a4.16,4.16,0,0,0-.94-3,3,3,0,0,0-2.29-1A4.3,4.3,0,0,0,98,4.56a6.41,6.41,0,0,0-1.67,1.16V19.19h-4.6V.7h4.6V2.08a6.67,6.67,0,0,1,2-1.35,5.94,5.94,0,0,1,2.39-.51,6.54,6.54,0,0,1,2.71.61,6.9,6.9,0,0,1,2.38,1.76A8.58,8.58,0,0,1,112,.22a8.55,8.55,0,0,1,2.74.43A5.78,5.78,0,0,1,117,2a6.94,6.94,0,0,1,1.54,2.4,9.61,9.61,0,0,1,.57,3.5Z"/></g></g></svg>